<svg id="Camada_1" data-name="Camada 1" xmlns="http://www.w3.org/2000/svg" viewBox="0 0 245.02 55.25"><defs><style>.cls-1{fill:#0e0e0e;}.cls-2{fill:#424242;}</style></defs><title>codigo-barras</title><path class="cls-1" d="M-689.63,359.24q0-12.35,0-24.69c0-1.28-.49-2.91,1.82-2.82,2,.08,1.64,1.48,1.64,2.67q0,24.89,0,49.76c0,1.31.43,2.85-1.88,2.76-2.46-.1-1.53-1.88-1.54-3C-689.66,375.7-689.63,367.47-689.63,359.24Z" transform="translate(709.19 -331.7)"/><path class="cls-1" d="M-622.55,359.59c0,8.1,0,16.2,0,24.3,0,1.16.78,2.92-1.58,3-2.73.12-1.75-1.91-1.76-3.12q-.09-24.48,0-49c0-1.11-.93-3,1.48-3.07,2.57-.09,1.85,1.85,1.86,3.17C-622.53,343.14-622.56,351.36-622.55,359.59Z" transform="translate(709.19 -331.7)"/><path class="cls-1" d="M-597,359.62c0,8.09,0,16.19,0,24.29,0,1.14.82,2.92-1.57,3-2.68.09-1.79-1.9-1.79-3.14q-.08-24.48,0-49c0-1.15-.82-3,1.53-3.06,2.54-.06,1.84,1.87,1.85,3.21C-597,343.18-597,351.4-597,359.62Z" transform="translate(709.19 -331.7)"/><path class="cls-2" d="M-643.19,359.24c0,8.36,0,16.72,0,25.07,0,1,.65,2.49-1.16,2.62-2,.15-1.59-1.5-1.59-2.63q0-24.89,0-49.78c0-1.09-.58-2.83,1.42-2.82s1.33,1.77,1.33,2.84C-643.16,342.77-643.19,351-643.19,359.24Z" transform="translate(709.19 -331.7)"/><path class="cls-2" d="M-610.83,359.26c0-8.09,0-16.17,0-24.26,0-1.18-.82-3.14,1.3-3.27s1.49,1.89,1.49,3q.07,24.63,0,49.25c0,1.06.74,2.82-1.27,2.89-2.32.07-1.51-1.88-1.52-3C-610.86,375.67-610.83,367.46-610.83,359.26Z" transform="translate(709.19 -331.7)"/><path class="cls-2" d="M-590.77,358.87c0-8.11,0-16.21,0-24.32,0-1.06-.73-2.84,1.31-2.84s1.39,1.74,1.39,2.84q.06,24.88,0,49.76c0,1.15.44,2.78-1.61,2.62-1.79-.15-1.11-1.68-1.11-2.62C-590.79,375.83-590.77,367.35-590.77,358.87Z" transform="translate(709.19 -331.7)"/><path class="cls-2" d="M-506,359.49c0,8.21,0,16.42,0,24.63,0,1.06.69,2.78-1.36,2.81s-1.45-1.67-1.45-2.76q0-24.81,0-49.63c0-1.12-.54-2.81,1.4-2.84s1.41,1.7,1.41,2.79C-506,342.82-506,351.16-506,359.49Z" transform="translate(709.19 -331.7)"/><path class="cls-1" d="M-547.21,359.48c0,8.21,0,16.43,0,24.64,0,1.23.59,2.9-1.77,2.8-2.1-.09-1.53-1.61-1.53-2.7q0-24.83,0-49.65c0-1.25-.53-2.93,1.8-2.83,2.09.09,1.49,1.64,1.5,2.73C-547.19,342.8-547.21,351.14-547.21,359.48Z" transform="translate(709.19 -331.7)"/><path class="cls-1" d="M-478.52,359.25c0-8.24,0-16.47,0-24.71,0-1.07-.66-2.66,1.44-2.78,2.33-.14,1.82,1.54,1.82,2.8q0,24.9,0,49.79c0,1.15.46,2.58-1.65,2.57s-1.62-1.48-1.62-2.59C-478.53,376-478.52,367.61-478.52,359.25Z" transform="translate(709.19 -331.7)"/><path class="cls-1" d="M-567.34,359.62c0,8.11,0,16.22,0,24.33,0,1.14.82,2.94-1.61,2.95s-1.62-1.79-1.62-2.93q-.07-24.71,0-49.41c0-1.26-.51-2.94,1.81-2.8,2.08.13,1.44,1.7,1.44,2.78C-567.32,342.9-567.34,351.26-567.34,359.62Z" transform="translate(709.19 -331.7)"/><path class="cls-1" d="M-523.93,359.63c0,8.21,0,16.42,0,24.64,0,1.08.61,2.57-1.53,2.65s-1.73-1.29-1.73-2.47q0-25,0-50c0-1.09-.55-2.63,1.55-2.67,2.37-.05,1.69,1.69,1.69,2.87C-523.9,343-523.92,351.29-523.93,359.63Z" transform="translate(709.19 -331.7)"/><path class="cls-1" d="M-471.62,359.27c0-8.09,0-16.17,0-24.26,0-1.2-1-3.27,1.65-3.24,2.36,0,1.57,1.86,1.57,3q.08,24.63,0,49.26c0,1.18.7,2.95-1.71,2.87s-1.52-1.89-1.53-3C-471.66,375.69-471.62,367.48-471.62,359.27Z" transform="translate(709.19 -331.7)"/><path class="cls-1" d="M-673.9,359.23c0,8.23,0,16.45,0,24.68,0,1,.8,2.88-1.19,2.9s-1.21-1.84-1.21-2.86q-.09-24.68,0-49.36c0-1-.76-2.89,1.36-2.74,1.68.12,1,1.73,1.05,2.71C-673.88,342.78-673.9,351-673.9,359.23Z" transform="translate(709.19 -331.7)"/><path class="cls-1" d="M-668.76,359.24c0,8.22,0,16.45,0,24.67,0,1,.8,2.88-1.2,2.9s-1.22-1.84-1.22-2.88q-.09-24.66,0-49.34c0-1.06-.67-2.87,1.38-2.73,1.68.11,1.05,1.72,1.06,2.71C-668.74,342.79-668.76,351-668.76,359.24Z" transform="translate(709.19 -331.7)"/><path class="cls-1" d="M-603.47,359.34c0,8.1.05,16.2,0,24.3,0,1.1,1.06,3.18-1.26,3.15-2,0-1.12-1.91-1.12-2.94q-.09-24.5,0-49c0-1.06-.79-2.94,1.12-3,2.28,0,1.26,2,1.27,3.15C-603.43,343.13-603.47,351.24-603.47,359.34Z" transform="translate(709.19 -331.7)"/><path class="cls-1" d="M-650.21,359.63c0-8.35,0-16.7,0-25.05,0-1-.65-2.58,1-2.72,2.11-.17,1.4,1.66,1.4,2.72q.07,24.85,0,49.73c0,.94.67,2.54-1.2,2.53s-1.23-1.57-1.24-2.54C-650.23,376.08-650.21,367.85-650.21,359.63Z" transform="translate(709.19 -331.7)"/><path class="cls-1" d="M-544.32,359.26c0-8.22,0-16.45,0-24.67,0-1-.74-2.9,1.37-2.73,1.68.13,1,1.75,1,2.71q.06,24.85,0,49.72c0,.95.63,2.54-1.2,2.55s-1.18-1.6-1.18-2.54C-544.35,376-544.32,367.61-544.32,359.26Z" transform="translate(709.19 -331.7)"/><path class="cls-1" d="M-514.35,359.26c0-8.22,0-16.43,0-24.65,0-1-.76-2.91,1.36-2.74,1.67.13,1,1.77,1,2.72q.06,24.84,0,49.68c0,.94.68,2.55-1.16,2.56s-1.16-1.61-1.16-2.54C-514.37,375.94-514.35,367.6-514.35,359.26Z" transform="translate(709.19 -331.7)"/><path class="cls-1" d="M-697.88,359.26c0,8.36,0,16.72,0,25.08,0,.94.64,2.52-1.2,2.51s-1.18-1.61-1.18-2.54q-.06-24.88,0-49.77c0-1-.72-2.89,1.41-2.67,1.62.16,1,1.74,1,2.69C-697.85,342.8-697.88,351-697.88,359.26Z" transform="translate(709.19 -331.7)"/><path class="cls-2" d="M-694.79,332v54.7h-.64V332Z" transform="translate(709.19 -331.7)"/><ellipse class="cls-2" cx="68.47" cy="27.62" rx="0.45" ry="38.78"/><path class="cls-2" d="M-613.85,386.73V331.92h.72v54.78Z" transform="translate(709.19 -331.7)"/><ellipse class="cls-2" cx="146.02" cy="27.63" rx="0.45" ry="38.79"/><path class="cls-2" d="M-558.63,386.66V332h.72v54.73Z" transform="translate(709.19 -331.7)"/><ellipse class="cls-2" cx="222.48" cy="27.64" rx="0.48" ry="38.72"/><ellipse class="cls-2" cx="210.48" cy="27.63" rx="0.46" ry="38.77"/><ellipse class="cls-2" cx="218.75" cy="27.65" rx="0.5" ry="38.71"/><path class="cls-2" d="M-534.19,386.19V332.55h.36v53.58Z" transform="translate(709.19 -331.7)"/><ellipse class="cls-2" cx="45.06" cy="27.73" rx="0.51" ry="38.61"/><ellipse class="cls-1" cx="80.79" cy="27.77" rx="0.3" ry="38.38"/><path class="cls-1" d="M-520.27,332.1v54.54h-.56V332.26Z" transform="translate(709.19 -331.7)"/><path class="cls-1" d="M-683.6,386.56V332.38h.58v54.27Z" transform="translate(709.19 -331.7)"/><ellipse class="cls-2" cx="28.22" cy="27.75" rx="0.22" ry="37.88"/><ellipse class="cls-1" cx="49.08" cy="27.9" rx="0.34" ry="38.34"/><path class="cls-2" d="M-653.6,386.31V332.72h.41v53.65Z" transform="translate(709.19 -331.7)"/><path class="cls-1" d="M-638,386.66V332.39h.58v54.14Z" transform="translate(709.19 -331.7)"/><path class="cls-1" d="M-634.38,332.51v54.2h-.55V332.47Z" transform="translate(709.19 -331.7)"/><path class="cls-2" d="M-620.1,332.78v53.67h-.4v-53.7Z" transform="translate(709.19 -331.7)"/><path class="cls-1" d="M-585.31,386.53V332.41h.55v54.22Z" transform="translate(709.19 -331.7)"/><ellipse class="cls-1" cx="127.94" cy="27.75" rx="0.34" ry="38.29"/><ellipse class="cls-1" cx="131.61" cy="27.88" rx="0.36" ry="38.33"/><path class="cls-1" d="M-708.65,332.51v54.16h-.54V332.48Z" transform="translate(709.19 -331.7)"/><path class="cls-2" d="M-553.48,332.78v53.68h-.4V332.77Z" transform="translate(709.19 -331.7)"/><ellipse class="cls-2" cx="178.75" cy="27.93" rx="0.23" ry="37.95"/><ellipse class="cls-1" cx="3.43" cy="27.88" rx="0.35" ry="38.31"/><ellipse class="cls-2" cx="206.47" cy="27.93" rx="0.23" ry="37.96"/><path class="cls-2" d="M-482.2,332.83V386.4h-.37V332.8Z" transform="translate(709.19 -331.7)"/><path class="cls-2" d="M-464.6,386.2V332.82h.42v53.55Z" transform="translate(709.19 -331.7)"/><path class="cls-2" d="M-617.65,384.94V332.75h.4V385Z" transform="translate(709.19 -331.7)"/></svg>