<svg xmlns="http://www.w3.org/2000/svg" width="100" height="100" viewBox="0 0 100 100">
  <g id="favicon" transform="translate(-128 1566)">
    <circle id="Elipse_12" data-name="Elipse 12" cx="50" cy="50" r="50" transform="translate(128 -1566)" fill="#131313"/>
    <g id="logo" transform="translate(147.68 -1545.838)">
      <path id="Caminho_4457" data-name="Caminho 4457" d="M66.562,2.473A1.257,1.257,0,0,0,64.4,2.436L48.1,28.894a1.259,1.259,0,0,0,.54,1.8.834.834,0,0,0,.869-.21L70.145,13.033a1.257,1.257,0,0,1,2.052.7l3.251,16.5A1.3,1.3,0,0,0,76.7,31.278l4.133.07a1.257,1.257,0,0,0,1.113-1.879Z" transform="translate(-34.449)" fill="#00f180" fill-rule="evenodd"/>
      <path id="Caminho_4458" data-name="Caminho 4458" d="M203.781,137.613l2.651.045-.011.626-2.65-.045Zm.027,2.291,3,.051-.011.641-3.74-.064.088-5.154,3.637.062-.011.641-2.9-.049Z" transform="translate(-146.739 -96.653)" fill="#fff"/>
      <path id="Caminho_4459" data-name="Caminho 4459" d="M185.116,140.25a3.025,3.025,0,0,1-1.086-.21,2.519,2.519,0,0,1-1.4-1.416,2.792,2.792,0,0,1,.036-2.106,2.585,2.585,0,0,1,1.459-1.36,2.93,2.93,0,0,1,1.093-.18,2.852,2.852,0,0,1,1.094.225,2.214,2.214,0,0,1,.851.611l-.486.456a1.869,1.869,0,0,0-.655-.468,2.014,2.014,0,0,0-.785-.168,2.2,2.2,0,0,0-.813.133,1.948,1.948,0,0,0-.647.4,1.9,1.9,0,0,0-.438.626,2.062,2.062,0,0,0-.16.785,2.114,2.114,0,0,0,.134.8,1.918,1.918,0,0,0,.416.633,1.939,1.939,0,0,0,.634.423,2.192,2.192,0,0,0,.807.161,2.1,2.1,0,0,0,.79-.134,1.914,1.914,0,0,0,.671-.46l.471.472a2.284,2.284,0,0,1-.872.589A2.873,2.873,0,0,1,185.116,140.25Z" transform="translate(-131.811 -96.363)" fill="#fff"/>
      <path id="Caminho_4460" data-name="Caminho 4460" d="M162.168,139.837l.088-5.154.6.01,3.337,4.292-.317-.006.072-4.233.736.012-.088,5.154-.6-.01-3.337-4.291.317.005-.072,4.234Z" transform="translate(-117.141 -96.15)" fill="#fff"/>
      <path id="Caminho_4461" data-name="Caminho 4461" d="M139.819,139.561l2.422-5.114.729.012,2.254,5.194-.773-.013-2-4.777.294,0-2.164,4.706Zm1.016-1.272.209-.586,2.9.049.2.592Z" transform="translate(-100.966 -95.979)" fill="#fff"/>
      <path id="Caminho_4462" data-name="Caminho 4462" d="M117.187,139.073l.088-5.154.6.01,2.246,3.934-.324-.006L122.149,134l.6.01-.08,5.154-.707-.012.061-4.042.17,0-2.09,3.382-.339-.006-1.989-3.451.184,0-.069,4.042Z" transform="translate(-84.585 -95.597)" fill="#fff"/>
      <path id="Caminho_4463" data-name="Caminho 4463" d="M97.821,138.743l.088-5.154,2.01.034a2.828,2.828,0,0,1,1.152.233,1.637,1.637,0,0,1,.726.631,1.933,1.933,0,0,1-.033,1.929,1.653,1.653,0,0,1-.747.6,2.824,2.824,0,0,1-1.16.194l-1.605-.027.337-.333-.033,1.907Zm3.446.059-1.279-1.892.788.013,1.294,1.893Zm-2.678-1.879-.325-.366,1.583.027a1.628,1.628,0,0,0,1.073-.284,1.064,1.064,0,0,0,.383-.855,1.042,1.042,0,0,0-.354-.86,1.63,1.63,0,0,0-1.063-.32l-1.583-.027.338-.362Z" transform="translate(-70.569 -95.358)" fill="#fff"/>
      <path id="Caminho_4464" data-name="Caminho 4464" d="M76.774,138.409a2.988,2.988,0,0,1-1.094-.218,2.653,2.653,0,0,1-.859-.567,2.7,2.7,0,0,1-.524-2.94,2.525,2.525,0,0,1,.588-.822,2.591,2.591,0,0,1,.878-.545,2.946,2.946,0,0,1,1.1-.18,2.869,2.869,0,0,1,1.079.217,2.5,2.5,0,0,1,.859.567,2.387,2.387,0,0,1,.56.842,2.792,2.792,0,0,1-.036,2.106,2.465,2.465,0,0,1-.589.83,2.655,2.655,0,0,1-.878.537A2.968,2.968,0,0,1,76.774,138.409Zm.011-.656a2.066,2.066,0,0,0,.79-.134,1.864,1.864,0,0,0,.64-.4,1.9,1.9,0,0,0,.43-.626,2.085,2.085,0,0,0,.027-1.576,1.931,1.931,0,0,0-1.035-1.063,2.063,2.063,0,0,0-.785-.16,2.137,2.137,0,0,0-.805.134,1.974,1.974,0,0,0-1.078,1.027,2.182,2.182,0,0,0-.027,1.576,2,2,0,0,0,.416.64,1.96,1.96,0,0,0,.626.423A2.145,2.145,0,0,0,76.785,137.754Z" transform="translate(-53.38 -95.031)" fill="#fff"/>
      <path id="Caminho_4465" data-name="Caminho 4465" d="M59.432,135.373l2.658.045-.011.633-2.658-.045Zm.027,2.718-.736-.013.088-5.154,3.637.062-.011.641-2.9-.049Z" transform="translate(-42.271 -94.877)" fill="#fff"/>
      <path id="Caminho_4466" data-name="Caminho 4466" d="M39.357,137.749l.088-5.154,2.01.034a2.828,2.828,0,0,1,1.152.233,1.637,1.637,0,0,1,.726.631,1.934,1.934,0,0,1-.033,1.929,1.652,1.652,0,0,1-.747.6,2.824,2.824,0,0,1-1.16.194l-1.605-.027.337-.333-.032,1.907Zm3.446.059-1.279-1.892.788.013,1.294,1.893Zm-2.678-1.879-.325-.366,1.583.027a1.629,1.629,0,0,0,1.073-.284,1.064,1.064,0,0,0,.383-.855,1.043,1.043,0,0,0-.354-.86,1.63,1.63,0,0,0-1.062-.32l-1.583-.027.338-.362Z" transform="translate(-28.254 -94.639)" fill="#fff"/>
      <path id="Caminho_4467" data-name="Caminho 4467" d="M22.22,134.527l2.651.045-.011.626-2.651-.045Zm.027,2.291,3,.051-.011.641-3.74-.064.088-5.154,3.637.062-.011.641-2.9-.049Z" transform="translate(-15.33 -94.419)" fill="#fff"/>
      <path id="Caminho_4468" data-name="Caminho 4468" d="M2.524,137.123l.088-5.154,2.01.034a2.828,2.828,0,0,1,1.152.233,1.637,1.637,0,0,1,.726.631,1.934,1.934,0,0,1-.033,1.929,1.7,1.7,0,0,1-.747.606,2.834,2.834,0,0,1-1.16.194l-1.605-.027.337-.341-.032,1.907Zm.767-1.821-.325-.374,1.583.027a1.629,1.629,0,0,0,1.073-.284,1.175,1.175,0,0,0,.029-1.708,1.63,1.63,0,0,0-1.062-.32l-1.583-.027.338-.362Z" transform="translate(-1.595 -94.185)" fill="#fff"/>
      <path id="Caminho_4469" data-name="Caminho 4469" d="M118.5,115.577l1.738-3.636.382.007,1.613,3.693-.408-.007-1.481-3.466.157,0-1.6,3.413Zm.676-.968.121-.312,2.131.036.11.316Z" transform="translate(-85.534 -79.69)" fill="#fff"/>
      <path id="Caminho_4470" data-name="Caminho 4470" d="M109.754,115.352l.056-3.33L108.523,112l.006-.335,2.963.051-.006.335-1.288-.022-.057,3.33Z" transform="translate(-78.315 -79.49)" fill="#fff"/>
      <path id="Caminho_4471" data-name="Caminho 4471" d="M100.483,115.2l.062-3.665.388.007-.057,3.33,2.052.035-.006.335Z" transform="translate(-72.495 -79.394)" fill="#fff"/>
      <path id="Caminho_4472" data-name="Caminho 4472" d="M84.775,115l1.738-3.636.382.007,1.613,3.693-.408-.007L86.618,111.6l.157,0-1.6,3.413Zm.676-.968.121-.312,2.131.036.11.316Z" transform="translate(-61.126 -79.275)" fill="#fff"/>
      <path id="Caminho_4473" data-name="Caminho 4473" d="M179.226,169.906a4.8,4.8,0,0,1,.416-1.9,5.11,5.11,0,0,1,2.69-2.639,4.864,4.864,0,0,1,3.848.065,5.067,5.067,0,0,1,1.568,1.124,4.887,4.887,0,0,1,1.057,1.605,4.663,4.663,0,0,1,.364,1.911,4.729,4.729,0,0,1-.429,1.924,4.9,4.9,0,0,1-1.111,1.568,5.1,5.1,0,0,1-1.6,1.031,5.018,5.018,0,0,1-3.848-.065,4.862,4.862,0,0,1-2.6-2.689A4.869,4.869,0,0,1,179.226,169.906Zm1.983.034a3.276,3.276,0,0,0,.2,1.22,3.384,3.384,0,0,0,.631,1,3.142,3.142,0,0,0,.954.678,3.021,3.021,0,0,0,1.2.258,2.767,2.767,0,0,0,1.154-.219,2.83,2.83,0,0,0,.95-.645,3.212,3.212,0,0,0,.884-2.193,3.154,3.154,0,0,0-.217-1.234,2.988,2.988,0,0,0-.618-1,2.741,2.741,0,0,0-.927-.69,2.919,2.919,0,0,0-3.317.618,2.992,2.992,0,0,0-.651.981A3.313,3.313,0,0,0,181.209,169.94Z" transform="translate(-129.487 -118.096)" fill="#00f180"/>
      <path id="Caminho_4474" data-name="Caminho 4474" d="M153.811,164.65l6.558.111-.031,1.851-2.367-.04-.134,7.88-1.917-.033.134-7.88-2.274-.039Z" transform="translate(-111.07 -117.839)" fill="#00f180"/>
      <path id="Caminho_4475" data-name="Caminho 4475" d="M125.023,173.292l-7.264-6.789.563.327-.061,5.95-1.944-.033.172-10.115h.079l7.106,6.76-.42-.192.064-6.069,1.93.033-.172,10.128Z" transform="translate(-83.956 -116.379)" fill="#00f180"/>
      <path id="Caminho_4476" data-name="Caminho 4476" d="M75.136,168.136a4.8,4.8,0,0,1,.416-1.9,5.112,5.112,0,0,1,2.69-2.639,4.864,4.864,0,0,1,3.847.065,5.068,5.068,0,0,1,1.568,1.125,4.893,4.893,0,0,1,1.057,1.6,4.669,4.669,0,0,1,.364,1.911,4.734,4.734,0,0,1-.43,1.924,4.888,4.888,0,0,1-1.111,1.568,5.108,5.108,0,0,1-1.6,1.031,5.018,5.018,0,0,1-3.847-.065,4.862,4.862,0,0,1-2.6-2.689A4.87,4.87,0,0,1,75.136,168.136Zm1.983.034a3.28,3.28,0,0,0,.2,1.22,3.379,3.379,0,0,0,.631,1,3.138,3.138,0,0,0,.954.678,3.025,3.025,0,0,0,1.2.259,2.772,2.772,0,0,0,1.154-.218,2.834,2.834,0,0,0,.95-.645,3.212,3.212,0,0,0,.884-2.193,3.154,3.154,0,0,0-.217-1.234,2.991,2.991,0,0,0-.618-1,2.751,2.751,0,0,0-.927-.69,2.918,2.918,0,0,0-3.317.618,2.986,2.986,0,0,0-.652.981A3.315,3.315,0,0,0,77.119,168.17Z" transform="translate(-54.149 -116.815)" fill="#00f180"/>
      <path id="Caminho_4477" data-name="Caminho 4477" d="M41.5,172.48l.165-9.731,2.909.049a6.407,6.407,0,0,1,2.491.479,4.361,4.361,0,0,1,1.633,1.192,4.609,4.609,0,0,1,.9,1.642,5.854,5.854,0,0,1,.26,1.816,4.677,4.677,0,0,1-.43,1.95,4.464,4.464,0,0,1-1.083,1.463,4.82,4.82,0,0,1-1.576.912,5.521,5.521,0,0,1-1.883.285Zm1.949-1.818,1.137.019a4.44,4.44,0,0,0,1.325-.163,2.933,2.933,0,0,0,1.028-.551,2.348,2.348,0,0,0,.677-.914,3.331,3.331,0,0,0,.26-1.292,3.282,3.282,0,0,0-.291-1.552,2.5,2.5,0,0,0-.751-.952,2.648,2.648,0,0,0-.918-.465,3.1,3.1,0,0,0-.8-.146l-1.56-.026Z" transform="translate(-29.807 -116.463)" fill="#00f180"/>
      <path id="Caminho_4478" data-name="Caminho 4478" d="M.321,166.864a4.8,4.8,0,0,1,.416-1.9,5.11,5.11,0,0,1,2.69-2.639,4.728,4.728,0,0,1,1.937-.364,4.7,4.7,0,0,1,1.91.429,5.072,5.072,0,0,1,1.568,1.125,4.891,4.891,0,0,1,1.057,1.6,4.666,4.666,0,0,1,.364,1.911,4.729,4.729,0,0,1-.429,1.924,4.888,4.888,0,0,1-1.111,1.568,5.108,5.108,0,0,1-1.6,1.031,4.837,4.837,0,0,1-1.924.351,4.869,4.869,0,0,1-1.924-.416A5.1,5.1,0,0,1,1.7,170.406a5.1,5.1,0,0,1-1.031-1.6A4.869,4.869,0,0,1,.321,166.864ZM2.3,166.9a3.28,3.28,0,0,0,.2,1.22,3.385,3.385,0,0,0,.631,1,3.138,3.138,0,0,0,.954.677,3.025,3.025,0,0,0,1.2.259,2.772,2.772,0,0,0,1.154-.218,2.836,2.836,0,0,0,.95-.645A3.212,3.212,0,0,0,8.28,167a3.153,3.153,0,0,0-.217-1.234,2.988,2.988,0,0,0-.618-1,2.75,2.75,0,0,0-.927-.69,2.9,2.9,0,0,0-1.173-.258,2.86,2.86,0,0,0-2.144.876,2.986,2.986,0,0,0-.652.981A3.314,3.314,0,0,0,2.3,166.9Z" transform="translate(0 -115.895)" fill="#00f180"/>
    </g>
  </g>
</svg>
