<svg width="27" height="32" viewBox="0 0 27 32" fill="none" xmlns="http://www.w3.org/2000/svg">
<path d="M25.1757 13.5879C25.1757 22.6006 13.5879 30.3259 13.5879 30.3259C13.5879 30.3259 2 22.6006 2 13.5879C2 10.5146 3.22086 7.56715 5.39401 5.39401C7.56715 3.22086 10.5146 2 13.5879 2C16.6612 2 19.6086 3.22086 21.7817 5.39401C23.9549 7.56715 25.1757 10.5146 25.1757 13.5879Z" stroke="white" stroke-width="2.57508" stroke-linecap="round" stroke-linejoin="round"/>
<path d="M13.5875 17.4498C15.7207 17.4498 17.4501 15.7205 17.4501 13.5872C17.4501 11.454 15.7207 9.72461 13.5875 9.72461C11.4542 9.72461 9.72485 11.454 9.72485 13.5872C9.72485 15.7205 11.4542 17.4498 13.5875 17.4498Z" stroke="white" stroke-width="2.57508" stroke-linecap="round" stroke-linejoin="round"/>
</svg>
