<svg width="220" height="203" viewBox="0 0 220 203" fill="none" xmlns="http://www.w3.org/2000/svg">
<path fill-rule="evenodd" clip-rule="evenodd" d="M115.419 4.13546C113.707 1.13189 109.403 1.05874 107.59 4.00239L48.5989 99.7856C47.1019 102.216 48.2068 105.218 50.5527 106.305C51.6139 106.797 52.8051 106.302 53.698 105.546L128.39 42.3659C131.055 40.1111 135.152 41.5007 135.819 44.8857L147.589 104.621C148.018 106.798 149.91 108.38 152.128 108.418L167.089 108.672C170.615 108.732 172.866 104.932 171.12 101.868L115.419 4.13546Z" fill="#00F180"/>
<path d="M205.667 143.469L215.263 143.633L215.224 145.898L205.629 145.735L205.667 143.469ZM205.766 151.763L216.641 151.948L216.602 154.267L203.061 154.037L203.378 135.378L216.546 135.602L216.507 137.921L206.004 137.743L205.766 151.763Z" fill="white"/>
<path d="M192.138 154.064C190.717 154.04 189.406 153.787 188.205 153.304C187.023 152.804 185.994 152.12 185.12 151.252C184.264 150.367 183.598 149.342 183.12 148.179C182.642 147.015 182.414 145.74 182.438 144.354C182.462 142.968 182.732 141.702 183.249 140.555C183.766 139.409 184.477 138.416 185.38 137.579C186.283 136.723 187.334 136.074 188.532 135.632C189.749 135.173 191.068 134.956 192.489 134.98C193.929 135.004 195.248 135.276 196.448 135.794C197.666 136.294 198.693 137.032 199.53 138.006L197.769 139.656C197.071 138.897 196.281 138.333 195.398 137.962C194.516 137.574 193.568 137.371 192.556 137.354C191.507 137.336 190.527 137.497 189.614 137.837C188.72 138.178 187.938 138.662 187.27 139.29C186.602 139.919 186.073 140.674 185.685 141.557C185.315 142.421 185.121 143.369 185.104 144.4C185.086 145.43 185.247 146.393 185.588 147.287C185.946 148.164 186.449 148.928 187.095 149.579C187.742 150.23 188.506 150.741 189.389 151.111C190.289 151.482 191.263 151.677 192.312 151.694C193.325 151.712 194.278 151.55 195.173 151.21C196.068 150.852 196.877 150.297 197.601 149.545L199.305 151.253C198.436 152.198 197.384 152.909 196.149 153.386C194.932 153.863 193.595 154.089 192.138 154.064Z" fill="white"/>
<path d="M162.168 153.342L162.485 134.683L164.67 134.72L176.751 150.257L175.605 150.237L175.866 134.911L178.531 134.956L178.214 153.615L176.028 153.577L163.947 138.041L165.094 138.06L164.833 153.387L162.168 153.342Z" fill="white"/>
<path d="M139.819 152.962L148.586 134.447L151.225 134.492L159.384 153.294L156.585 153.247L149.334 135.953L150.4 135.971L142.565 153.008L139.819 152.962ZM143.497 148.358L144.253 146.238L154.755 146.417L155.492 148.562L143.497 148.358Z" fill="white"/>
<path d="M117.187 152.577L117.504 133.919L119.69 133.956L127.82 148.199L126.647 148.179L135.15 134.219L137.336 134.256L137.045 152.915L134.486 152.871L134.708 138.237L135.322 138.248L127.755 150.49L126.528 150.47L119.329 137.976L119.995 137.987L119.746 152.621L117.187 152.577Z" fill="white"/>
<path d="M97.8208 152.248L98.138 133.589L105.415 133.713C107.05 133.741 108.44 134.022 109.587 134.557C110.733 135.092 111.609 135.854 112.214 136.842C112.819 137.829 113.11 138.999 113.088 140.349C113.065 141.7 112.734 142.858 112.095 143.825C111.457 144.774 110.556 145.496 109.392 145.992C108.228 146.488 106.829 146.722 105.194 146.694L99.3833 146.595L100.604 145.39L100.486 152.293L97.8208 152.248ZM110.295 152.46L105.666 145.609L108.518 145.657L113.201 152.509L110.295 152.46ZM100.599 145.656L99.4219 144.33L105.153 144.427C106.859 144.456 108.153 144.114 109.036 143.4C109.937 142.669 110.399 141.637 110.422 140.304C110.445 138.971 110.018 137.933 109.142 137.189C108.283 136.446 107.001 136.06 105.295 136.031L99.5646 135.933L100.787 134.621L100.599 145.656Z" fill="white"/>
<path d="M83.8541 152.224C82.4325 152.199 81.1127 151.937 79.8947 151.436C78.6945 150.936 77.6574 150.252 76.7834 149.384C75.9097 148.498 75.2339 147.473 74.756 146.31C74.2781 145.146 74.0507 143.88 74.074 142.512C74.0972 141.144 74.3675 139.886 74.8847 138.74C75.4019 137.593 76.112 136.601 77.015 135.763C77.9183 134.907 78.9782 134.25 80.1947 133.791C81.4112 133.332 82.7392 133.114 84.1785 133.139C85.6001 133.163 86.9021 133.425 88.0846 133.925C89.2851 134.407 90.3222 135.092 91.1959 135.978C92.0877 136.846 92.7636 137.862 93.2238 139.025C93.7017 140.188 93.9289 141.463 93.9053 142.849C93.8818 144.235 93.6114 145.502 93.0942 146.648C92.5947 147.795 91.8845 148.796 90.9634 149.652C90.0604 150.489 89.0007 151.138 87.7842 151.597C86.5857 152.039 85.2757 152.248 83.8541 152.224ZM83.8944 149.851C84.9251 149.869 85.8788 149.707 86.7556 149.367C87.6501 149.026 88.4227 148.542 89.0733 147.913C89.7419 147.267 90.2614 146.511 90.6316 145.646C91.0195 144.782 91.2223 143.835 91.2398 142.804C91.2573 141.773 91.0869 140.819 90.7285 139.942C90.3879 139.066 89.8943 138.302 89.2477 137.651C88.6192 136.982 87.8637 136.463 86.9812 136.092C86.1165 135.722 85.1689 135.528 84.1382 135.511C83.0898 135.493 82.1183 135.654 81.2237 135.995C80.347 136.335 79.5742 136.829 78.9056 137.475C78.2372 138.104 77.7091 138.85 77.3211 139.714C76.9509 140.579 76.757 141.527 76.7395 142.557C76.722 143.588 76.8835 144.542 77.2241 145.419C77.5825 146.296 78.0848 147.069 78.7311 147.737C79.3777 148.388 80.1334 148.899 80.9981 149.269C81.8805 149.639 82.846 149.833 83.8944 149.851Z" fill="white"/>
<path d="M61.2894 141.788L70.9118 141.952L70.8729 144.244L61.2504 144.081L61.2894 141.788ZM61.3887 151.629L58.7232 151.583L59.0404 132.925L72.208 133.149L72.1686 135.468L61.6665 135.289L61.3887 151.629Z" fill="white"/>
<path d="M39.3568 151.254L39.674 132.595L46.9508 132.719C48.5856 132.747 49.9762 133.028 51.1225 133.563C52.2688 134.098 53.1446 134.86 53.7499 135.848C54.3552 136.836 54.6464 138.005 54.6235 139.355C54.6005 140.706 54.2697 141.864 53.6312 142.831C52.9929 143.78 52.0919 144.503 50.9281 144.998C49.7643 145.494 48.3649 145.728 46.7301 145.7L40.9193 145.601L42.1396 144.396L42.0223 151.299L39.3568 151.254ZM51.8313 151.466L47.2018 144.615L50.0539 144.663L54.7367 151.515L51.8313 151.466ZM42.1351 144.662L40.9578 143.336L46.6886 143.433C48.3946 143.462 49.6891 143.12 50.5722 142.406C51.4734 141.675 51.9353 140.643 51.958 139.31C51.9806 137.977 51.5539 136.939 50.6778 136.195C49.8194 135.452 48.5373 135.066 46.8314 135.037L41.1006 134.939L42.3227 133.627L42.1351 144.662Z" fill="white"/>
<path d="M24.1059 140.383L33.7017 140.546L33.6632 142.812L24.0674 142.649L24.1059 140.383ZM24.2049 148.677L35.0801 148.862L35.0407 151.181L21.5 150.95L21.8171 132.292L34.9847 132.516L34.9453 134.835L24.4432 134.656L24.2049 148.677Z" fill="white"/>
<path d="M2.524 150.628L2.84119 131.969L10.118 132.093C11.7528 132.121 13.1434 132.402 14.2897 132.937C15.436 133.472 16.3118 134.233 16.9171 135.221C17.5225 136.209 17.8137 137.379 17.7907 138.729C17.7677 140.08 17.437 141.238 16.7984 142.205C16.1602 143.154 15.259 143.885 14.0949 144.399C12.931 144.894 11.5317 145.128 9.89688 145.101L4.08609 145.002L5.30686 143.769L5.1895 150.673L2.524 150.628ZM5.30233 144.036L4.12551 142.683L9.85634 142.78C11.5623 142.809 12.8568 142.467 13.7399 141.753C14.6408 141.04 15.1025 140.017 15.1252 138.684C15.1479 137.351 14.7211 136.313 13.845 135.569C12.9867 134.826 11.7045 134.44 9.99862 134.411L4.26779 134.313L5.48992 133.001L5.30233 144.036Z" fill="white"/>
<path d="M118.497 125.105L124.788 111.941L126.171 111.965L132.01 125.335L130.532 125.31L125.172 112.763L125.74 112.773L119.956 125.13L118.497 125.105ZM120.945 121.602L121.382 120.472L129.095 120.603L129.493 121.747L120.945 121.602Z" fill="white"/>
<path d="M112.981 125.011L113.185 112.957L108.523 112.878L108.544 111.665L119.271 111.848L119.25 113.06L114.588 112.981L114.383 125.035L112.981 125.011Z" fill="white"/>
<path d="M100.483 124.799L100.708 111.532L102.111 111.556L101.906 123.61L109.335 123.736L109.315 124.949L100.483 124.799Z" fill="white"/>
<path d="M84.7746 124.532L91.065 111.368L92.4486 111.392L98.2879 124.762L96.8096 124.737L91.4492 112.19L92.0177 112.2L86.234 124.557L84.7746 124.532ZM87.2229 121.028L87.6592 119.898L95.3729 120.029L95.7706 121.174L87.2229 121.028Z" fill="white"/>
<path d="M179.228 182.748C179.269 180.323 179.771 178.033 180.733 175.879C181.695 173.725 183.004 171.832 184.66 170.2C186.348 168.537 188.285 167.245 190.471 166.325C192.657 165.405 194.995 164.965 197.484 165.008C199.941 165.05 202.246 165.568 204.4 166.562C206.554 167.556 208.446 168.913 210.076 170.632C211.739 172.32 213.015 174.257 213.903 176.443C214.824 178.629 215.263 180.934 215.222 183.36C215.18 185.849 214.662 188.17 213.668 190.324C212.705 192.478 211.364 194.37 209.645 196.001C207.958 197.6 206.022 198.844 203.836 199.732C201.65 200.621 199.329 201.044 196.872 201.002C194.383 200.96 192.061 200.458 189.907 199.495C187.753 198.533 185.86 197.224 184.229 195.569C182.629 193.882 181.386 191.945 180.497 189.76C179.609 187.574 179.185 185.237 179.228 182.748ZM186.408 182.87C186.381 184.433 186.627 185.906 187.146 187.287C187.698 188.637 188.459 189.847 189.431 190.917C190.434 191.955 191.586 192.773 192.884 193.37C194.215 193.967 195.662 194.279 197.225 194.305C198.725 194.331 200.118 194.067 201.404 193.514C202.722 192.962 203.869 192.184 204.843 191.179C205.818 190.142 206.589 188.958 207.154 187.627C207.72 186.264 208.016 184.801 208.043 183.238C208.07 181.642 207.808 180.153 207.257 178.771C206.737 177.39 205.992 176.18 205.02 175.143C204.081 174.073 202.962 173.24 201.663 172.644C200.365 172.047 198.95 171.736 197.418 171.71C195.886 171.684 194.461 171.947 193.143 172.499C191.825 173.051 190.663 173.845 189.655 174.881C188.649 175.886 187.863 177.069 187.297 178.432C186.731 179.795 186.435 181.274 186.408 182.87Z" fill="#00F180"/>
<path d="M153.894 164.65L177.635 165.053L177.521 171.754L168.953 171.609L168.468 200.136L161.528 200.018L162.013 171.491L153.78 171.351L153.894 164.65Z" fill="#00F180"/>
<path d="M147.836 201.222L121.538 176.644L123.576 177.828L123.354 199.369L116.317 199.25L116.94 162.633L117.227 162.638L142.953 187.11L141.433 186.414L141.663 164.442L148.651 164.561L148.028 201.225L147.836 201.222Z" fill="#00F180"/>
<path d="M75.1382 180.978C75.1794 178.553 75.6812 176.263 76.6434 174.109C77.6057 171.955 78.9147 170.062 80.5703 168.431C82.2584 166.768 84.1955 165.476 86.3816 164.555C88.5678 163.635 90.9053 163.196 93.3943 163.238C95.8514 163.28 98.1567 163.798 100.31 164.792C102.464 165.786 104.356 167.143 105.987 168.863C107.65 170.551 108.925 172.488 109.814 174.673C110.734 176.859 111.174 179.165 111.133 181.59C111.09 184.079 110.572 186.4 109.578 188.554C108.616 190.708 107.275 192.6 105.555 194.231C103.868 195.83 101.932 197.074 99.7464 197.963C97.5608 198.851 95.2395 199.274 92.7824 199.233C90.2934 199.19 87.9719 198.688 85.8177 197.726C83.6636 196.764 81.7707 195.455 80.139 193.799C78.5398 192.112 77.296 190.176 76.4075 187.99C75.519 185.804 75.0959 183.467 75.1382 180.978ZM82.3179 181.1C82.2914 182.664 82.5376 184.136 83.0568 185.518C83.6084 186.868 84.3698 188.078 85.3411 189.147C86.3449 190.186 87.4961 191.003 88.7946 191.6C90.1251 192.197 91.5721 192.509 93.1357 192.536C94.6354 192.561 96.0284 192.298 97.3146 191.745C98.6326 191.193 99.779 190.414 100.754 189.409C101.729 188.373 102.499 187.189 103.064 185.858C103.63 184.495 103.926 183.032 103.953 181.468C103.98 179.873 103.718 178.384 103.167 177.002C102.648 175.621 101.902 174.411 100.931 173.373C99.9911 172.304 98.8722 171.471 97.5736 170.874C96.2751 170.278 94.8599 169.966 93.3283 169.94C91.7966 169.914 90.3717 170.177 89.0536 170.729C87.7356 171.281 86.573 172.076 85.5659 173.112C84.5593 174.116 83.7731 175.3 83.2073 176.663C82.6415 178.026 82.3451 179.505 82.3179 181.1Z" fill="#00F180"/>
<path d="M41.5023 197.978L42.1012 162.749L52.6315 162.928C56.1735 162.989 59.18 163.566 61.6511 164.662C64.1222 165.757 66.0927 167.195 67.5626 168.976C69.0645 170.757 70.148 172.738 70.8131 174.92C71.4782 177.102 71.7921 179.294 71.7547 181.495C71.7102 184.112 71.1914 186.465 70.1983 188.555C69.2376 190.613 67.9309 192.379 66.278 193.851C64.6256 195.291 62.7236 196.392 60.5721 197.153C58.4211 197.883 56.149 198.227 53.7558 198.186L41.5023 197.978ZM48.5567 191.395L52.6731 191.465C54.4281 191.495 56.0274 191.298 57.4709 190.876C58.915 190.422 60.1552 189.757 61.1915 188.881C62.2598 188.005 63.0765 186.902 63.6417 185.571C64.2395 184.208 64.5532 182.65 64.5831 180.895C64.6221 178.597 64.2709 176.724 63.5295 175.275C62.8205 173.795 61.9144 172.646 60.8111 171.829C59.7397 171.013 58.6321 170.452 57.4882 170.145C56.3449 169.806 55.3743 169.63 54.5766 169.617L48.9285 169.521L48.5567 191.395Z" fill="#00F180"/>
<path d="M0.322878 179.706C0.364105 177.281 0.865857 174.992 1.82813 172.837C2.79041 170.683 4.09936 168.79 5.75498 167.159C7.44305 165.496 9.38016 164.204 11.5663 163.284C13.7525 162.363 16.09 161.924 18.579 161.966C21.0361 162.008 23.3414 162.526 25.495 163.52C27.6486 164.515 29.5407 165.871 31.1713 167.591C32.8343 169.279 34.1101 171.216 34.9986 173.401C35.919 175.587 36.3586 177.893 36.3174 180.318C36.275 182.807 35.7568 185.129 34.7626 187.282C33.8003 189.436 32.4595 191.329 30.74 192.959C29.053 194.558 27.1168 195.802 24.9311 196.691C22.7455 197.579 20.4242 198.003 17.9671 197.961C15.4781 197.919 13.1566 197.416 11.0024 196.454C8.84828 195.492 6.95538 194.183 5.32372 192.527C3.72452 190.84 2.48067 188.904 1.59216 186.718C0.703662 184.533 0.280566 182.195 0.322878 179.706ZM7.50263 179.828C7.47605 181.392 7.72233 182.864 8.24147 184.246C8.79307 185.596 9.55452 186.806 10.5258 187.876C11.5296 188.914 12.6807 189.732 13.9793 190.328C15.3097 190.925 16.7568 191.237 18.3204 191.264C19.8201 191.289 21.2131 191.026 22.4993 190.473C23.8173 189.921 24.9637 189.142 25.9384 188.138C26.9136 187.101 27.6838 185.917 28.249 184.586C28.8148 183.223 29.111 181.76 29.1376 180.196C29.1647 178.601 28.9028 177.112 28.3517 175.73C27.8326 174.349 27.0871 173.139 26.1152 172.101C25.1758 171.032 24.0568 170.199 22.7583 169.602C21.4598 169.006 20.0446 168.694 18.513 168.668C16.9813 168.642 15.5564 168.905 14.2383 169.457C12.9203 170.01 11.7577 170.804 10.7506 171.84C9.74398 172.844 8.9578 174.028 8.39201 175.391C7.82621 176.754 7.52975 178.233 7.50263 179.828Z" fill="#00F180"/>
</svg>
