<svg width="54" height="54" viewBox="0 0 54 54" fill="none" xmlns="http://www.w3.org/2000/svg">
<path d="M19 3H8.33333C6.91885 3 5.56229 3.5619 4.5621 4.5621C3.5619 5.56229 3 6.91885 3 8.33333V19M19 3H45.6667C47.0812 3 48.4377 3.5619 49.4379 4.5621C50.4381 5.56229 51 6.91885 51 8.33333V19M19 3V51M3 19V45.6667C3 47.0812 3.5619 48.4377 4.5621 49.4379C5.56229 50.4381 6.91885 51 8.33333 51H19M3 19H51M51 19V45.6667C51 47.0812 50.4381 48.4377 49.4379 49.4379C48.4377 50.4381 47.0812 51 45.6667 51H19" stroke="white" stroke-width="4.5" stroke-linecap="round" stroke-linejoin="round"/>
</svg>
