<svg width="64" height="54" viewBox="0 0 64 54" fill="none" xmlns="http://www.w3.org/2000/svg">
<path d="M43 51V45.6667C43 42.8377 41.8762 40.1246 39.8758 38.1242C37.8754 36.1238 35.1623 35 32.3333 35H13.6667C10.8377 35 8.12458 36.1238 6.12419 38.1242C4.12381 40.1246 3 42.8377 3 45.6667V51" stroke="white" stroke-width="4.5" stroke-linecap="round" stroke-linejoin="round"/>
<path d="M22.9997 24.3333C28.8907 24.3333 33.6663 19.5577 33.6663 13.6667C33.6663 7.77563 28.8907 3 22.9997 3C17.1086 3 12.333 7.77563 12.333 13.6667C12.333 19.5577 17.1086 24.3333 22.9997 24.3333Z" stroke="white" stroke-width="4.5" stroke-linecap="round" stroke-linejoin="round"/>
<path d="M53.666 16.3333V32.3333" stroke="white" stroke-width="4.5" stroke-linecap="round" stroke-linejoin="round"/>
<path d="M61.666 24.3333H45.666" stroke="white" stroke-width="4.5" stroke-linecap="round" stroke-linejoin="round"/>
</svg>
